<svg xmlns="http://www.w3.org/2000/svg" xmlns:xlink="http://www.w3.org/1999/xlink" viewBox="0 0 64 64"><defs><linearGradient id="d" x1="36" x2="36" y1="3" y2="61" gradientUnits="userSpaceOnUse"><stop offset="0" stop-color="#d6d6d6"/><stop offset="1" stop-color="#a1a1a1"/></linearGradient><linearGradient id="e" x1="23" x2="23" y1="59" y2="28" gradientUnits="userSpaceOnUse"><stop offset="0" stop-color="#838383"/><stop offset="1" stop-color="#a1a1a1"/></linearGradient><linearGradient id="f" x1="50" x2="50" y1="61" y2="47" gradientUnits="userSpaceOnUse"><stop offset="0" stop-color="#707070"/><stop offset="1" stop-color="#8e8e8e"/></linearGradient><linearGradient id="g" x1="17.5" x2="17.5" y1="57" y2="30" gradientUnits="userSpaceOnUse"><stop offset="0" stop-color="#002237"/><stop offset="1" stop-color="#003352"/></linearGradient><linearGradient id="a" x1="17.5" x2="17.5" y1="34" y2="41" gradientUnits="userSpaceOnUse"><stop offset="0" stop-color="#42bfff"/><stop offset="1" stop-color="#1174ac"/></linearGradient><linearGradient id="h" x1="21" x2="24" y1="44" y2="44" xlink:href="#a"/><linearGradient id="i" x1="11" x2="14" y1="44" y2="44" xlink:href="#a"/><linearGradient id="j" x1="16" x2="19" y1="44" y2="44" xlink:href="#a"/><linearGradient id="k" x1="21" x2="24" y1="48" y2="48" xlink:href="#a"/><linearGradient id="l" x1="11" x2="14" y1="48" y2="48" xlink:href="#a"/><linearGradient id="m" x1="16" x2="19" y1="48" y2="48" xlink:href="#a"/><linearGradient id="n" x1="21" x2="24" y1="52" y2="52" xlink:href="#a"/><linearGradient id="o" x1="11" x2="14" y1="52" y2="52" xlink:href="#a"/><linearGradient id="p" x1="16" x2="19" y1="52" y2="52" xlink:href="#a"/><linearGradient id="b" x1="21.32" x2="25.27" y1="42.02" y2="38.07" gradientUnits="userSpaceOnUse"><stop offset="0" stop-color="#a1dfff"/><stop offset="1" stop-color="#21c1ff"/></linearGradient><linearGradient id="q" x1="16.21" x2="24.38" y1="42.14" y2="33.97" xlink:href="#b"/><linearGradient id="r" x1="10.5" x2="18.91" y1="40.92" y2="32.51" xlink:href="#b"/><linearGradient id="s" x1="9.91" x2="12.72" y1="36.19" y2="33.38" xlink:href="#b"/><linearGradient id="c" x1="28" x2="28" y1="9.57" y2="28.43" gradientUnits="userSpaceOnUse"><stop offset="0" stop-color="#137dbf"/><stop offset="1" stop-color="#02476c"/></linearGradient><linearGradient id="t" x1="37" x2="51" y1="19" y2="19" gradientUnits="userSpaceOnUse"><stop offset="0" stop-color="#ffc033"/><stop offset="1" stop-color="#ef8e2e"/></linearGradient><linearGradient id="u" x1="39.97" x2="49.83" y1="22.5" y2="22.5" xlink:href="#c"/><linearGradient id="v" x1="33" x2="49" y1="33" y2="33" xlink:href="#c"/><linearGradient id="w" x1="33" x2="46.44" y1="38" y2="38" xlink:href="#c"/><linearGradient id="x" x1="33" x2="49" y1="43" y2="43" xlink:href="#c"/><linearGradient id="y" x1="33" x2="40.68" y1="48" y2="48" xlink:href="#c"/></defs><g data-name="Layer 2"><path fill="url(#d)" d="M57,8V48a1,1,0,0,1-.29.71l-12,12A1,1,0,0,1,44,61H20a5,5,0,0,1-4-2,4.94,4.94,0,0,1-1-3V8a5,5,0,0,1,5-5H52A5,5,0,0,1,57,8Z"/><path fill="url(#e)" d="M31,33V54a5,5,0,0,1-5,5H16a4.94,4.94,0,0,1-1-3V28H26A5,5,0,0,1,31,33Z"/><path fill="url(#f)" d="M56.92,47.62A1,1,0,0,0,56,47H44a1,1,0,0,0-1,1V60a1,1,0,0,0,.62.92A.84.84,0,0,0,44,61a1,1,0,0,0,.71-.29l12-12A1,1,0,0,0,56.92,47.62Z"/><rect width="23" height="27" x="6" y="30" fill="url(#g)" rx="3"/><path fill="url(#a)" d="M25,35v5a1,1,0,0,1-.17.55h0A1,1,0,0,1,24,41H11a1,1,0,0,1-1-1V35a.61.61,0,0,1,0-.14A1,1,0,0,1,11,34H24a1,1,0,0,1,.78.37A1,1,0,0,1,25,35Z"/><rect width="3" height="2" x="21" y="43" fill="url(#h)"/><rect width="3" height="2" x="11" y="43" fill="url(#i)"/><rect width="3" height="2" x="16" y="43" fill="url(#j)"/><rect width="3" height="2" x="21" y="47" fill="url(#k)"/><rect width="3" height="2" x="11" y="47" fill="url(#l)"/><rect width="3" height="2" x="16" y="47" fill="url(#m)"/><rect width="3" height="2" x="21" y="51" fill="url(#n)"/><rect width="3" height="2" x="11" y="51" fill="url(#o)"/><rect width="3" height="2" x="16" y="51" fill="url(#p)"/><path fill="url(#b)" d="M25,37.8V40a1,1,0,0,1-.17.55h0l-.62.42h0L24,41H20.3Z"/><path fill="url(#q)" d="M25,35v.64L17.12,41H15.07l9.71-6.63A1,1,0,0,1,25,35Z"/><path fill="url(#r)" d="M20.4,34l-10,6.81A1,1,0,0,1,10,40V38.44L16.51,34Z"/><path fill="url(#s)" d="M13.34,34,10,36.28V35a.61.61,0,0,1,0-.14L11.27,34Z"/><path fill="url(#c)" d="M29.29,18H29V14h.29a2,2,0,0,1,2,2h2a4,4,0,0,0-4-4H29V9.57H27V12h-.29a4,4,0,0,0,0,8H27v4h-.29a2,2,0,0,1-2-2h-2a4,4,0,0,0,4,4H27v2.43h2V26h.29a4,4,0,0,0,0-8Zm-2.58,0a2,2,0,0,1,0-4H27v4Zm2.58,6H29V20h.29a2,2,0,0,1,0,4Z"/><circle cx="44" cy="19" r="7" fill="url(#t)"/><path fill="url(#u)" d="M44,19l-4,5.71a7,7,0,0,0,9.86-1.84Z"/><rect width="16" height="2" x="33" y="32" fill="url(#v)"/><rect width="13.44" height="2" x="33" y="37" fill="url(#w)"/><rect width="16" height="2" x="33" y="42" fill="url(#x)"/><rect width="7.68" height="2" x="33" y="47" fill="url(#y)"/></g></svg>