<svg xmlns="http://www.w3.org/2000/svg" data-name="Layer 29" viewBox="0 0 32 32"><defs><linearGradient id="a" x1="6.441" x2="25.559" y1="5.322" y2="24.441" gradientUnits="userSpaceOnUse"><stop offset="0" stop-color="#fdc830"/><stop offset="1" stop-color="#f37335"/></linearGradient></defs><path fill="url(#a)" d="M23,2H17a3.01,3.01,0,0,0-2.82,2H9A3.0088,3.0088,0,0,0,6,7V17a3.0088,3.0088,0,0,0,3,3h3v3H10v2h2v3H10v2H20V28H18V25h3v1h2V22H21v1H18V20h3a3.0088,3.0088,0,0,0,3-3V13.82A3.01,3.01,0,0,0,26,11V5A3.0088,3.0088,0,0,0,23,2ZM22,17a1.003,1.003,0,0,1-1,1H9a1.003,1.003,0,0,1-1-1V7A1.003,1.003,0,0,1,9,6h5v5a3.0088,3.0088,0,0,0,3,3h5v3Zm-2-6a3,3,0,1,1,3-3A3.0088,3.0088,0,0,1,20,11ZM9,7h4V9H9V7Zm0,3h4v2H9V10Zm10,5h2v2H19V15Zm-7,.5A1.5,1.5,0,1,1,10.5,14,1.5016,1.5016,0,0,1,12,15.5ZM21,8a1,1,0,1,1-1-1A1.003,1.003,0,0,1,21,8Z"/></svg>