<svg xmlns="http://www.w3.org/2000/svg" enable-background="new 0 0 512 512" viewBox="0 0 512 512"><path fill="#9bc9ff" fill-rule="evenodd" d="M247.866,384.579c67.78,0,122.923-55.144,122.923-122.923c0-67.778-55.146-122.919-122.923-122.919
		c-67.77,0-122.919,55.148-122.919,122.919C124.947,329.428,180.093,384.579,247.866,384.579L247.866,384.579z M96.14,261.656
		c0-83.664,68.059-151.74,151.726-151.74c83.668,0,151.74,68.073,151.74,151.74c0,83.671-68.071,151.73-151.74,151.73
		C164.198,413.386,96.14,345.323,96.14,261.656z" clip-rule="evenodd"/><path fill="#57a4ff" fill-rule="evenodd" d="M510.09,314.218c-2.873-3.363-7.92-3.759-11.283-0.892l-10.618,9.061c8.321-33.09,9.812-67.771,4.222-101.479
		c-6.991-42.223-25.034-82.191-52.181-115.583c-38.303-47.138-92.394-78.479-152.301-88.267c-4.359-0.712-8.472,2.236-9.189,6.599
		c-0.712,4.359,2.25,8.481,6.608,9.189c56.04,9.151,106.64,38.478,142.471,82.568c47.921,58.964,63.709,135.89,43.459,208.43
		l-8.368-19.467c-1.75-4.061-6.453-5.939-10.515-4.203c-4.057,1.75-5.939,6.453-4.184,10.51l16.727,38.935
		c1,2.34,3.061,4.047,5.529,4.628c0.604,0.141,1.212,0.208,1.821,0.208c1.882,0,3.731-0.656,5.194-1.906l31.708-27.052
		C512.548,322.629,512.949,317.577,510.09,314.218L510.09,314.218z M136.948,261.656c0-61.158,49.761-110.918,110.918-110.918
		c61.171,0,110.923,49.761,110.923,110.918c0,61.162-49.751,110.923-110.923,110.923
		C186.709,372.579,136.948,322.818,136.948,261.656L136.948,261.656z M120.947,261.656c0-69.978,56.94-126.919,126.919-126.919
		c69.993,0,126.923,56.94,126.923,126.919c0,69.983-56.931,126.923-126.923,126.923
		C177.888,388.579,120.947,331.639,120.947,261.656L120.947,261.656z M239.88,327.516c-18.939-2.717-33.642-14.779-37.921-31.94
		c-1.071-4.278,1.538-8.618,5.831-9.689c4.288-1.071,8.628,1.543,9.698,5.821c3.859,15.51,19.51,20.689,31.751,20.378
		c10.519-0.25,20.42-4,25.218-9.548c2.882-3.321,4-7.283,3.41-12.08c-1.387-11.439-11-18.019-31.18-21.331
		c-32.727-5.378-40.36-22.029-40.987-35.048c-0.882-18.052,11.736-33.161,31.387-37.624c0.911-0.208,1.84-0.387,2.793-0.547v-9.5
		c0-4.42,3.58-8,7.995-8c4.415,0,8.005,3.58,8.005,8v9.439c13.878,2.151,27.529,10.269,34.378,26.59
		c1.708,4.071-0.198,8.76-4.283,10.467c-4.066,1.712-8.76-0.198-10.467-4.278c-6.491-15.439-22.199-19.449-34.878-16.571
		c-9.552,2.175-19.553,8.892-18.954,21.241c0.194,3.873,0.76,15.633,27.6,20.043c10.142,1.66,41.02,6.727,44.482,35.19
		c1.118,9.269-1.358,17.736-7.189,24.477c-6.769,7.821-17.953,13.09-30.689,14.632v9.269c0,4.42-3.59,8-8.005,8
		c-4.415,0-7.995-3.58-7.995-8V327.516L239.88,327.516z M100.14,261.656c0-81.455,66.266-147.74,147.726-147.74
		c81.464,0,147.74,66.285,147.74,147.74c0,81.46-66.275,147.73-147.74,147.73C166.406,409.386,100.14,343.116,100.14,261.656
		L100.14,261.656z M247.866,97.92c90.295,0,163.745,73.46,163.745,163.736c0,90.281-73.45,163.731-163.745,163.731
		c-90.276,0-163.726-73.45-163.726-163.731C84.14,171.38,157.59,97.92,247.866,97.92L247.866,97.92z M101.631,81.717
		c25.968-21.109,56.256-36.359,88.408-44.647l-12.694,17c-2.637,3.538-1.92,8.547,1.623,11.189c1.439,1.08,3.123,1.59,4.783,1.59
		c2.439,0,4.849-1.109,6.415-3.212l25.35-33.949c1.524-2.038,1.981-4.679,1.241-7.109c-0.731-2.429-2.58-4.368-4.977-5.222
		L172.496,3.418c-4.156-1.481-8.736,0.698-10.208,4.868c-1.481,4.16,0.698,8.731,4.859,10.213l13.1,4.651
		c-32.218,9.146-62.52,24.869-88.71,46.147c-41.209,33.491-70.058,78.271-83.45,129.49c-13.109,50.181-10.387,102.229,7.863,150.523
		c1.208,3.198,4.26,5.17,7.491,5.17c0.939,0,1.887-0.17,2.826-0.519c4.132-1.561,6.212-6.184,4.651-10.312
		C-4.452,250.099,23.968,144.836,101.631,81.717L101.631,81.717z M439.73,418.688c2.797-3.42,2.297-8.463-1.122-11.26
		c-3.411-2.802-8.448-2.302-11.25,1.108c-9.878,12.043-21.057,23.161-33.237,33.063c-93.503,75.988-226.52,68.087-310.112-15.864
		l17.784,3.283c4.344,0.807,8.514-2.071,9.316-6.41c0.802-4.349-2.071-8.519-6.411-9.321l-40.992-7.571
		c-2.495-0.458-5.066,0.292-6.915,2.033c-1.863,1.736-2.783,4.25-2.481,6.779l4.981,42.081c0.477,4.057,3.929,7.057,7.929,7.057
		c0.307,0,0.627-0.019,0.948-0.057c4.392-0.524,7.519-4.491,7-8.882l-2.028-17.25c40.949,40.822,94.517,65.879,152.74,71.073
		c7.477,0.67,14.93,1,22.359,1c56.742,0,111.428-19.331,155.967-55.53C417.22,443.439,429.168,431.557,439.73,418.688z" clip-rule="evenodd"/></svg>