<svg xmlns="http://www.w3.org/2000/svg" data-name="Layer 1" viewBox="0 0 48 48"><path fill="#232323" d="M36,45H12a5.006,5.006,0,0,1-5-5V10a5.006,5.006,0,0,1,5-5h2.8a1,1,0,0,1,0,2H12a3,3,0,0,0-3,3V40a3,3,0,0,0,3,3H36a3,3,0,0,0,3-3V10a3,3,0,0,0-3-3H33.2a1,1,0,0,1,0-2H36a5.006,5.006,0,0,1,5,5V40A5.006,5.006,0,0,1,36,45Z"/><path fill="#232323" d="M30.559,11H17.441A3,3,0,0,1,14.6,8.949l-.666-2A3,3,0,0,1,16.775,3H31.226A3,3,0,0,1,34.07,6.949l-.665,2A3,3,0,0,1,30.559,11ZM16.775,5a1,1,0,0,0-.949,1.316l.667,2A1,1,0,0,0,17.441,9H30.559a1,1,0,0,0,.949-.684l.665-2A1,1,0,0,0,31.226,5Z"/><path fill="#7fbde7" d="M18 20H15a2 2 0 01-2-2V15a2 2 0 012-2h3a2 2 0 012 2v3A2 2 0 0118 20zm-3-5v3h3V15zM34 16H24a1 1 0 010-2H34a1 1 0 010 2zM32 20H24a1 1 0 010-2h8a1 1 0 010 2zM18 30H15a2 2 0 01-2-2V25a2 2 0 012-2h3a2 2 0 012 2v3A2 2 0 0118 30zm-3-5v3h3V25zM34 26H24a1 1 0 010-2H34a1 1 0 010 2zM32 30H24a1 1 0 010-2h8a1 1 0 010 2zM18 40H15a2 2 0 01-2-2V35a2 2 0 012-2h3a2 2 0 012 2v3A2 2 0 0118 40zm-3-5v3h3V35zM34 36H24a1 1 0 010-2H34a1 1 0 010 2zM32 40H24a1 1 0 010-2h8a1 1 0 010 2z"/></svg>