<svg xmlns="http://www.w3.org/2000/svg" width="64" height="64" fill="none" viewBox="0 0 64 64"><path fill="#3CD8FA" d="M7 41C7 38.7909 8.79086 37 11 37H23C25.2091 37 27 38.7909 27 41V53C27 55.2091 25.2091 57 23 57H11C8.79086 57 7 55.2091 7 53V41Z"/><path fill="#FF639B" d="M5 15C5 12.7909 6.79086 11 9 11H23C25.2091 11 27 12.7909 27 15V29C27 31.2091 25.2091 33 23 33H9C6.79086 33 5 31.2091 5 29V15zM31 41C31 38.7909 32.7909 37 35 37H49C51.2091 37 53 38.7909 53 41V55C53 57.2091 51.2091 59 49 59H35C32.7909 59 31 57.2091 31 55V41z"/><path fill="#FFD646" d="M31 9C31 6.79086 32.7909 5 35 5H55C57.2091 5 59 6.79086 59 9V29C59 31.2091 57.2091 33 55 33H35C32.7909 33 31 31.2091 31 29V9Z"/></svg>