<svg xmlns="http://www.w3.org/2000/svg" width="64" height="64" viewBox="0 0 64 64"><g transform="translate(-1699.184 -1096.068)"><g transform="translate(84.853)"><path fill="#fbfbfb" d="m 848.333,-69.754892 a 28.025887,28.025887 0 0 1 28.02589,-28.025885 28.025887,28.025887 0 0 1 28.02588,28.025886 l -28.02588,10e-7 z" transform="translate(770.226 1213.144)"/><path fill="#f3f3f5" d="m 855.333,-69.754891 a 21.025887,21.025887 0 0 1 21.02589,-21.025886 21.025887,21.025887 0 0 1 21.02588,21.025886 l -21.02588,10e-7 z" transform="translate(770.226 1213.144)"/><path fill="#e8e8ec" d="m 859.92919,-69.754891 a 16.429693,16.429693 0 0 1 16.4297,-16.429693 16.429693,16.429693 0 0 1 16.42969,16.429693 l -16.42969,10e-7 z" transform="translate(770.226 1213.144)"/><path fill="#dfdfe5" d="m 865.05572,-69.754891 a 11.30317,11.30317 0 0 1 11.30317,-11.30317 11.30317,11.30317 0 0 1 11.30317,11.30317 l -11.30317,10e-7 z" transform="translate(770.226 1213.144)"/><path fill="none" stroke="#12141a" stroke-linecap="round" stroke-linejoin="round" d="M1622.8108 1142.8515l43.5039 0M1669.0251 1142.8515l2.0641 0M1618.559 1142.8515l5.7045 0"/><path fill="none" stroke="#e6e6e6" stroke-linecap="round" stroke-linejoin="round" d="M1635.843 1144.9189l19.7347 0M1638.4047 1146.9413l5.2631 0M1646.135 1146.9413l7.0607 0M1641.0866 1149.0185l5.1161 0"/><path style="line-height:normal;text-indent:0;text-align:start;text-decoration-line:none;text-transform:none;block-progression:tb" fill="#fc0" fill-rule="evenodd" d="M1660.5678 1109.8124c-.1727 0-.3104.1448-.3077.3174 0 .2167-.093.315-.3076.315-.4228-.01-.4228.6311 0 .6251.207 0 .3076.057.3076.3015-.01.4227.6311.4227.6251 0 0-.2217.1038-.3015.3089-.3015.4227.01.4227-.6312 0-.6251-.2787 0-.3089-.1595-.3089-.315 0-.1764-.141-.3202-.3174-.3174zM1626.8387 1131.5886c-.237 0-.426.1987-.4223.4356 0 .2975-.1271.4323-.4222.4323-.5802-.01-.5802.8663 0 .858.2842 0 .4222.079.4222.4138-.01.5801.8661.5801.8579 0 0-.3043.1424-.4138.424-.4138.5801.01.5801-.8662 0-.858-.3825 0-.424-.2188-.424-.4323 0-.2421-.1935-.4394-.4356-.4356z" color="#000" font-family="sans-serif" font-weight="400" overflow="visible"/><path style="line-height:normal;text-indent:0;text-align:start;text-decoration-line:none;text-transform:none;block-progression:tb" fill="#12141a" fill-rule="evenodd" d="m 1631.1238,1121.0378 c -0.1301,0 -0.2339,0.1091 -0.2318,0.2392 0,0.1633 -0.07,0.2373 -0.2319,0.2373 -0.3185,-0.01 -0.3185,0.4756 0,0.471 0.1561,0 0.2319,0.043 0.2319,0.2273 -0.01,0.3184 0.4755,0.3184 0.471,0 0,-0.1671 0.078,-0.2273 0.2327,-0.2273 0.3185,0 0.3185,-0.4755 0,-0.471 -0.21,0 -0.2327,-0.1201 -0.2327,-0.2373 0,-0.133 -0.1063,-0.2413 -0.2392,-0.2392 z" color="#000" font-family="sans-serif" font-weight="400" overflow="visible"/><path style="line-height:normal;text-indent:0;text-align:start;text-decoration-line:none;text-transform:none;block-progression:tb" fill="#ff8e00" fill-rule="evenodd" d="m 1632.9437,1106.6165 c -0.1727,0 -0.3104,0.1448 -0.3077,0.3174 0,0.2167 -0.093,0.315 -0.3076,0.315 -0.4228,-0.01 -0.4228,0.6312 0,0.6251 0.207,0 0.3076,0.057 0.3076,0.3016 -0.01,0.4226 0.6311,0.4226 0.6251,0 0,-0.2218 0.1038,-0.3016 0.3089,-0.3016 0.4227,0.01 0.4227,-0.6311 0,-0.6251 -0.2787,0 -0.3089,-0.1594 -0.3089,-0.315 0,-0.1764 -0.141,-0.3201 -0.3174,-0.3174 z" color="#000" font-family="sans-serif" font-weight="400" overflow="visible"/><path style="line-height:normal;text-indent:0;text-align:start;text-decoration-line:none;text-transform:none;block-progression:tb" fill="#12141a" fill-rule="evenodd" d="m 1651.5307,1107.5981 c -0.1301,0 -0.2339,0.1091 -0.2319,0.2391 0,0.1633 -0.07,0.2374 -0.2318,0.2374 -0.3185,0 -0.3185,0.4755 0,0.471 0.156,0 0.2318,0.043 0.2318,0.2272 -0.01,0.3185 0.4755,0.3185 0.471,0 0,-0.1671 0.078,-0.2272 0.2328,-0.2272 0.3185,0.01 0.3185,-0.4756 0,-0.471 -0.21,0 -0.2328,-0.1202 -0.2328,-0.2374 0,-0.1329 -0.1062,-0.2412 -0.2391,-0.2391 z" color="#000" font-family="sans-serif" font-weight="400" overflow="visible"/><path style="line-height:normal;text-indent:0;text-align:start;text-decoration-line:none;text-transform:none;block-progression:tb" fill="#ff8e00" fill-rule="evenodd" d="m 1662.2824,1115.8151 c -0.1726,0 -0.3104,0.1448 -0.3077,0.3174 0,0.2167 -0.093,0.315 -0.3076,0.315 -0.4227,-0.01 -0.4227,0.6311 0,0.6251 0.2071,0 0.3076,0.057 0.3076,0.3015 -0.01,0.4227 0.6311,0.4227 0.6251,0 0,-0.2217 0.1038,-0.3015 0.3089,-0.3015 0.4227,0.01 0.4227,-0.6312 0,-0.6251 -0.2787,0 -0.3089,-0.1595 -0.3089,-0.315 0,-0.1764 -0.1409,-0.3202 -0.3174,-0.3174 z" color="#000" font-family="sans-serif" font-weight="400" overflow="visible"/><path style="line-height:normal;text-indent:0;text-align:start;text-decoration-line:none;text-transform:none;block-progression:tb" fill="#12141a" fill-rule="evenodd" d="m 1663.7171,1126.2524 c -0.13,0 -0.2338,0.1092 -0.2318,0.2392 0,0.1633 -0.07,0.2374 -0.2318,0.2374 -0.3185,-0.01 -0.3185,0.4755 0,0.471 0.156,0 0.2318,0.043 0.2318,0.2272 -0.01,0.3185 0.4755,0.3185 0.471,0 0,-0.1671 0.078,-0.2272 0.2327,-0.2272 0.3186,0 0.3186,-0.4756 0,-0.471 -0.2099,0 -0.2327,-0.1202 -0.2327,-0.2374 0,-0.1329 -0.1062,-0.2412 -0.2392,-0.2392 z" color="#000" font-family="sans-serif" font-weight="400" overflow="visible"/><path style="line-height:normal;text-indent:0;text-align:start;text-decoration-line:none;text-transform:none;block-progression:tb" fill="#ff8e00" fill-rule="evenodd" d="m 1663.0071,1132.5992 c -0.237,0 -0.426,0.1988 -0.4223,0.4357 0,0.2974 -0.1271,0.4323 -0.4223,0.4323 -0.5801,-0.01 -0.5801,0.8662 0,0.8579 0.2842,0 0.4223,0.079 0.4223,0.4139 -0.01,0.5801 0.8661,0.5801 0.8579,0 0,-0.3044 0.1424,-0.4139 0.4239,-0.4139 0.5802,0.01 0.5802,-0.8662 0,-0.8579 -0.3825,0 -0.4239,-0.2188 -0.4239,-0.4323 0,-0.2422 -0.1935,-0.4395 -0.4356,-0.4357 z" color="#000" font-family="sans-serif" font-weight="400" overflow="visible"/><path style="line-height:normal;text-indent:0;text-align:start;text-decoration-line:none;text-transform:none;block-progression:tb" fill="#fc0" fill-rule="evenodd" d="m 1630.3451,1113.2441 c -0.1727,0 -0.3104,0.1448 -0.3077,0.3174 0,0.2167 -0.093,0.315 -0.3077,0.315 -0.4227,-0.01 -0.4227,0.6311 0,0.6251 0.2071,0 0.3077,0.057 0.3077,0.3016 -0.01,0.4226 0.6311,0.4226 0.6251,0 0,-0.2218 0.1038,-0.3016 0.3089,-0.3016 0.4227,0.01 0.4227,-0.6311 0,-0.6251 -0.2787,0 -0.3089,-0.1594 -0.3089,-0.315 0,-0.1764 -0.141,-0.3202 -0.3174,-0.3174 z" color="#000" font-family="sans-serif" font-weight="400" overflow="visible"/><path style="line-height:normal;text-indent:0;text-align:start;text-decoration-line:none;text-transform:none;block-progression:tb" fill="#12141a" fill-rule="evenodd" d="m 1639.521,1108.4175 c -0.1334,0 -0.2399,0.1119 -0.2378,0.2453 0,0.1675 -0.072,0.2434 -0.2378,0.2434 -0.3267,0 -0.3267,0.4878 0,0.4831 0.16,0 0.2378,0.044 0.2378,0.2331 0,0.3267 0.4877,0.3267 0.4831,0 0,-0.1714 0.08,-0.2331 0.2387,-0.2331 0.3267,0 0.3267,-0.4877 0,-0.4831 -0.2154,0 -0.2387,-0.1232 -0.2387,-0.2434 10e-4,-0.1364 -0.109,-0.2475 -0.2453,-0.2453 z" color="#000" font-family="sans-serif" font-weight="400" overflow="visible"/></g><g transform="rotate(-15.004 3110.512 -1673.207) scale(.60024)"><path fill="#fc0" d="m 1729.5624,1115.8622 -0.4375,2.2188 c -0.7681,0.2051 -1.515,0.4859 -2.1875,0.875 l -1.8437,-1.25 -2.6563,2.6875 1.25,1.8125 c -0.3988,0.6823 -0.6977,1.4371 -0.9063,2.2187 l -2.2187,0.4063 0,3.7812 2.2187,0.4063 c 0.2084,0.7815 0.5075,1.5365 0.9063,2.2187 l -1.25,1.8438 2.6563,2.6562 1.8124,-1.2812 c 0.6823,0.3987 1.4372,0.7289 2.2188,0.9375 l 0.4375,2.1875 3.75,0.031 0.4375,-2.2188 c 0.7816,-0.2076 1.5365,-0.5387 2.2188,-0.9375 l 1.8124,1.2813 2.6563,-2.6563 -1.25,-1.8437 c 0.3988,-0.6822 0.6978,-1.4059 0.9063,-2.1875 l 2.2187,-0.4375 0,-3.7813 -2.2187,-0.4062 c -0.2087,-0.7816 -0.5075,-1.5365 -0.9063,-2.2188 l 1.25,-1.8125 -2.6563,-2.6875 -1.8437,1.25 c -0.6724,-0.389 -1.4194,-0.6702 -2.1875,-0.875 l -0.4375,-2.2187 -3.75,0 z m -0.7938,8.915 c 0.1435,-0.1949 0.3078,-0.3736 0.4897,-0.5327 0.5828,-0.5102 1.3455,-0.8198 2.1791,-0.8198 1.8264,0 3.3125,1.4861 3.3125,3.3125 0,1.8264 -1.4861,3.3125 -3.3125,3.3125 -1.8264,0 -3.3125,-1.4861 -3.3125,-3.3125"/><path style="line-height:normal;-inkscape-font-specification:Sans;text-indent:0;text-align:start;text-decoration-line:none;text-transform:none;block-progression:tb;marker:none" fill="#fff" d="M1729.9688 1116.3622l-.3438 1.8125c-.042.1816-.1934.333-.375.375-.6243.1667-1.2017.4079-1.75.6875l.1875.125c.1582.099.373.099.5313 0 .6239-.361 1.3261-.6159 2.0624-.8125.1816-.042.3333-.1934.375-.375l.3438-1.8125-1.0312 0zM1725.1562 1118.331l-2.0937 2.125 1.0313 1.4687c.1089.1523.1212.3674.031.5313-.3727.6375-.6764 1.3496-.875 2.0937-.052.1702-.201.3068-.375.3438l-1.8125.3437 0 2.9375 1.8125.3438c.1741.037.323.1735.375.3437.1984.7439.5023 1.4875.875 2.125.09.1639.077.379-.031.5313l-1 1.5 2.0624 2.0625.5938-.4375-1.625-1.625 1-1.5c.1086-.1523.1214-.3674.031-.5313-.3726-.6375-.6766-1.3811-.875-2.125-.052-.1702-.2009-.3069-.375-.3437l-1.8124-.3438 0-2.9375 1.8124-.3437c.174-.037.3233-.1736.375-.3438.1986-.7441.5024-1.4562.875-2.0937.09-.1639.078-.379-.031-.5313l-1.0312-1.4687 1.6874-1.6875-.625-.4375z" color="#000" font-family="Sans" font-weight="400" overflow="visible"/><path style="line-height:normal;-inkscape-font-specification:Sans;text-indent:0;text-align:start;text-decoration-line:none;text-transform:none;block-progression:tb;marker:none" fill="#ff8e00" d="m 1732.3362,1122.9247 c -0.1749,0 -0.3313,0.039 -0.5,0.062 1.4766,0.2057 2.6637,1.2618 3.0937,2.6563 0.048,0.1542 0.097,0.3069 0.125,0.4687 0,0.022 0.028,0.041 0.031,0.062 0.037,0.1832 0.062,0.3681 0.062,0.5625 0,0.1944 -0.025,0.4105 -0.062,0.5938 0,0.021 -0.028,0.042 -0.031,0.062 -0.026,0.1503 -0.082,0.2935 -0.125,0.4375 -0.4225,1.4083 -1.607,2.4806 -3.0937,2.6875 0.1684,0.023 0.3255,0.031 0.5,0.031 2.0976,0 3.8124,-1.7149 3.8124,-3.8125 0,-2.0976 -1.7148,-3.8125 -3.8124,-3.8125 z" color="#000" font-family="Sans" font-weight="400" overflow="visible"/><path style="line-height:normal;-inkscape-font-specification:Sans;text-indent:0;text-align:start;text-decoration-line:none;text-transform:none;block-progression:tb;marker:none" fill="#fff" d="m 1727.9375,1133.9872 c -0.093,0.01 -0.2051,0.01 -0.2813,0.062 l -0.1874,0.125 c 0.564,0.2994 1.162,0.5536 1.7812,0.7188 0.1816,0.042 0.333,0.1934 0.375,0.375 l 0.375,1.8125 1.0312,0 -0.375,-1.8125 c -0.042,-0.1816 -0.1934,-0.3332 -0.375,-0.375 -0.732,-0.1953 -1.4462,-0.4966 -2.0937,-0.875 -0.082,-0.045 -0.1567,-0.037 -0.25,-0.031 z" color="#000" font-family="Sans" font-weight="400" overflow="visible"/><path style="line-height:normal;-inkscape-font-specification:Sans;text-indent:0;text-align:start;text-decoration-line:none;text-transform:none;block-progression:tb;marker:none" fill="#ff8e00" d="M1732.9062 1116.3622l.3438 1.8125c.042.1816.1934.333.375.375.6243.1667 1.2017.4079 1.75.6875l-.1875.125c-.1582.099-.373.099-.5313 0-.6239-.361-1.3261-.6159-2.0624-.8125-.1816-.042-.3333-.1934-.375-.375l-.3438-1.8125 1.0312 0zM1737.7188 1118.331l2.0937 2.125-1.0313 1.4687c-.1089.1523-.1212.3674-.031.5313.3727.6375.6764 1.3496.875 2.0937.052.1702.201.3068.375.3438l1.8125.3437 0 2.9375-1.8125.3438c-.1741.037-.323.1735-.375.3437-.1984.7439-.5023 1.4875-.875 2.125-.09.1639-.077.379.031.5313l1 1.5-2.0624 2.0625-.5938-.4375 1.625-1.625-1-1.5c-.1086-.1523-.1214-.3674-.031-.5313.3726-.6375.6766-1.3811.875-2.125.052-.1702.2009-.3069.375-.3437l1.8124-.3438 0-2.9375-1.8124-.3437c-.174-.037-.3233-.1736-.375-.3438-.1986-.7441-.5024-1.4562-.875-2.0937-.09-.1639-.078-.379.031-.5313l1.0312-1.4687-1.6874-1.6875.625-.4375z" color="#000" font-family="Sans" font-weight="400" overflow="visible"/><path style="line-height:normal;-inkscape-font-specification:Sans;text-indent:0;text-align:start;text-decoration-line:none;text-transform:none;block-progression:tb;marker:none" fill="#fff" d="m 1731.1133,1122.9247 c 0.1749,0 0.3313,0.039 0.5,0.062 -1.4766,0.2057 -2.6637,1.2618 -3.0937,2.6563 -0.048,0.1542 -0.097,0.3069 -0.125,0.4687 0,0.022 -0.028,0.041 -0.031,0.062 -0.037,0.1832 -0.062,0.3681 -0.062,0.5625 0,0.1944 0.025,0.4105 0.062,0.5938 0,0.021 0.028,0.042 0.031,0.062 0.026,0.1503 0.082,0.2935 0.125,0.4375 0.4225,1.4083 1.607,2.4806 3.0937,2.6875 -0.1684,0.023 -0.3255,0.031 -0.5,0.031 -2.0976,0 -3.8124,-1.7149 -3.8124,-3.8125 0,-2.0976 1.7148,-3.8125 3.8124,-3.8125 z" color="#000" font-family="Sans" font-weight="400" overflow="visible"/><path style="line-height:normal;-inkscape-font-specification:Sans;text-indent:0;text-align:start;text-decoration-line:none;text-transform:none;block-progression:tb;marker:none" fill="#ff8e00" d="m 1734.9375,1133.9872 c 0.093,0.01 0.2051,0.01 0.2813,0.062 l 0.1874,0.125 c -0.564,0.2994 -1.162,0.5536 -1.7812,0.7188 -0.1816,0.042 -0.333,0.1934 -0.375,0.375 l -0.375,1.8125 -1.0312,0 0.375,-1.8125 c 0.042,-0.1816 0.1934,-0.3332 0.375,-0.375 0.732,-0.1953 1.4462,-0.4966 2.0937,-0.875 0.082,-0.045 0.1567,-0.037 0.25,-0.031 z" color="#000" font-family="Sans" font-weight="400" overflow="visible"/><path fill="none" stroke="#12141a" stroke-linecap="round" stroke-linejoin="round" stroke-width="1.666" d="m 1722.4374,1120.3935 1.25,1.8125 c -0.3988,0.6823 -0.6977,1.4371 -0.9063,2.2187 l -2.2187,0.4063 0,3.7812 2.2187,0.4063 c 0.2084,0.7815 0.5075,1.5365 0.9063,2.2187 l -1.25,1.8438 2.6563,2.6562 1.8124,-1.2812 c 0.6823,0.3987 1.4372,0.7289 2.2188,0.9375 l 0.4375,2.1875 3.75,0.031 0.4375,-2.2188 c 0.7816,-0.2076 1.5365,-0.5387 2.2188,-0.9375 l 1.8124,1.2813 2.6563,-2.6563 -1.25,-1.8437 c 0.3988,-0.6822 0.6978,-1.4059 0.9063,-2.1875 l 1.0645,-0.2099 0.5777,-0.1139 0.5765,-0.1137 0,-0.2579 m 0,-1.8341 0,-1.6893 -2.2187,-0.4062 c -0.2087,-0.7816 -0.5075,-1.5365 -0.9063,-2.2188 l 1.25,-1.8125 -2.6563,-2.6875 -1.8437,1.25 c -0.6724,-0.389 -1.4194,-0.6702 -2.1875,-0.875 l -0.4375,-2.2187 -3.75,0 0,2e-4 -0.4375,2.2188 c -0.7681,0.2051 -1.515,0.4859 -2.1875,0.875 l -1.8437,-1.25 m -1.2655,1.2804 -0.2936,0.2929 m 5.234,5.4979 c 0.1435,-0.1949 0.3078,-0.3736 0.4897,-0.5327 m 2.1791,-0.8198 c 1.8264,0 3.3125,1.4861 3.3125,3.3125 0,1.8264 -1.4861,3.3125 -3.3125,3.3125 -1.8264,0 -3.3125,-1.4861 -3.3125,-3.3125"/></g><g transform="rotate(10.435 1724.215 1154.394)"><path fill="#fc0" d="m 1729.5624,1115.8622 -0.4375,2.2188 c -0.7681,0.2051 -1.515,0.4859 -2.1875,0.875 l -1.8437,-1.25 -2.6563,2.6875 1.25,1.8125 c -0.3988,0.6823 -0.6977,1.4371 -0.9063,2.2187 l -2.2187,0.4063 0,3.7812 2.2187,0.4063 c 0.2084,0.7815 0.5075,1.5365 0.9063,2.2187 l -1.25,1.8438 2.6563,2.6562 1.8124,-1.2812 c 0.6823,0.3987 1.4372,0.7289 2.2188,0.9375 l 0.4375,2.1875 3.75,0.031 0.4375,-2.2188 c 0.7816,-0.2076 1.5365,-0.5387 2.2188,-0.9375 l 1.8124,1.2813 2.6563,-2.6563 -1.25,-1.8437 c 0.3988,-0.6822 0.6978,-1.4059 0.9063,-2.1875 l 2.2187,-0.4375 0,-3.7813 -2.2187,-0.4062 c -0.2087,-0.7816 -0.5075,-1.5365 -0.9063,-2.2188 l 1.25,-1.8125 -2.6563,-2.6875 -1.8437,1.25 c -0.6724,-0.389 -1.4194,-0.6702 -2.1875,-0.875 l -0.4375,-2.2187 -3.75,0 z m -0.7938,8.915 c 0.1435,-0.1949 0.3078,-0.3736 0.4897,-0.5327 0.5828,-0.5102 1.3455,-0.8198 2.1791,-0.8198 1.8264,0 3.3125,1.4861 3.3125,3.3125 0,1.8264 -1.4861,3.3125 -3.3125,3.3125 -1.8264,0 -3.3125,-1.4861 -3.3125,-3.3125"/><path style="line-height:normal;-inkscape-font-specification:Sans;text-indent:0;text-align:start;text-decoration-line:none;text-transform:none;block-progression:tb;marker:none" fill="#fff" d="M1729.9688 1116.3622l-.3438 1.8125c-.042.1816-.1934.333-.375.375-.6243.1667-1.2017.4079-1.75.6875l.1875.125c.1582.099.373.099.5313 0 .6239-.361 1.3261-.6159 2.0624-.8125.1816-.042.3333-.1934.375-.375l.3438-1.8125-1.0312 0zM1725.1562 1118.331l-2.0937 2.125 1.0313 1.4687c.1089.1523.1212.3674.031.5313-.3727.6375-.6764 1.3496-.875 2.0937-.052.1702-.201.3068-.375.3438l-1.8125.3437 0 2.9375 1.8125.3438c.1741.037.323.1735.375.3437.1984.7439.5023 1.4875.875 2.125.09.1639.077.379-.031.5313l-1 1.5 2.0624 2.0625.5938-.4375-1.625-1.625 1-1.5c.1086-.1523.1214-.3674.031-.5313-.3726-.6375-.6766-1.3811-.875-2.125-.052-.1702-.2009-.3069-.375-.3437l-1.8124-.3438 0-2.9375 1.8124-.3437c.174-.037.3233-.1736.375-.3438.1986-.7441.5024-1.4562.875-2.0937.09-.1639.078-.379-.031-.5313l-1.0312-1.4687 1.6874-1.6875-.625-.4375z" color="#000" font-family="Sans" font-weight="400" overflow="visible"/><path style="line-height:normal;-inkscape-font-specification:Sans;text-indent:0;text-align:start;text-decoration-line:none;text-transform:none;block-progression:tb;marker:none" fill="#ff8e00" d="m 1732.3362,1122.9247 c -0.1749,0 -0.3313,0.039 -0.5,0.062 1.4766,0.2057 2.6637,1.2618 3.0937,2.6563 0.048,0.1542 0.097,0.3069 0.125,0.4687 0,0.022 0.028,0.041 0.031,0.062 0.037,0.1832 0.062,0.3681 0.062,0.5625 0,0.1944 -0.025,0.4105 -0.062,0.5938 0,0.021 -0.028,0.042 -0.031,0.062 -0.026,0.1503 -0.082,0.2935 -0.125,0.4375 -0.4225,1.4083 -1.607,2.4806 -3.0937,2.6875 0.1684,0.023 0.3255,0.031 0.5,0.031 2.0976,0 3.8124,-1.7149 3.8124,-3.8125 0,-2.0976 -1.7148,-3.8125 -3.8124,-3.8125 z" color="#000" font-family="Sans" font-weight="400" overflow="visible"/><path style="line-height:normal;-inkscape-font-specification:Sans;text-indent:0;text-align:start;text-decoration-line:none;text-transform:none;block-progression:tb;marker:none" fill="#fff" d="m 1727.9375,1133.9872 c -0.093,0.01 -0.2051,0.01 -0.2813,0.062 l -0.1874,0.125 c 0.564,0.2994 1.162,0.5536 1.7812,0.7188 0.1816,0.042 0.333,0.1934 0.375,0.375 l 0.375,1.8125 1.0312,0 -0.375,-1.8125 c -0.042,-0.1816 -0.1934,-0.3332 -0.375,-0.375 -0.732,-0.1953 -1.4462,-0.4966 -2.0937,-0.875 -0.082,-0.045 -0.1567,-0.037 -0.25,-0.031 z" color="#000" font-family="Sans" font-weight="400" overflow="visible"/><path style="line-height:normal;-inkscape-font-specification:Sans;text-indent:0;text-align:start;text-decoration-line:none;text-transform:none;block-progression:tb;marker:none" fill="#ff8e00" d="M1732.9062 1116.3622l.3438 1.8125c.042.1816.1934.333.375.375.6243.1667 1.2017.4079 1.75.6875l-.1875.125c-.1582.099-.373.099-.5313 0-.6239-.361-1.3261-.6159-2.0624-.8125-.1816-.042-.3333-.1934-.375-.375l-.3438-1.8125 1.0312 0zM1737.7188 1118.331l2.0937 2.125-1.0313 1.4687c-.1089.1523-.1212.3674-.031.5313.3727.6375.6764 1.3496.875 2.0937.052.1702.201.3068.375.3438l1.8125.3437 0 2.9375-1.8125.3438c-.1741.037-.323.1735-.375.3437-.1984.7439-.5023 1.4875-.875 2.125-.09.1639-.077.379.031.5313l1 1.5-2.0624 2.0625-.5938-.4375 1.625-1.625-1-1.5c-.1086-.1523-.1214-.3674-.031-.5313.3726-.6375.6766-1.3811.875-2.125.052-.1702.2009-.3069.375-.3437l1.8124-.3438 0-2.9375-1.8124-.3437c-.174-.037-.3233-.1736-.375-.3438-.1986-.7441-.5024-1.4562-.875-2.0937-.09-.1639-.078-.379.031-.5313l1.0312-1.4687-1.6874-1.6875.625-.4375z" color="#000" font-family="Sans" font-weight="400" overflow="visible"/><path style="line-height:normal;-inkscape-font-specification:Sans;text-indent:0;text-align:start;text-decoration-line:none;text-transform:none;block-progression:tb;marker:none" fill="#fff" d="m 1731.1133,1122.9247 c 0.1749,0 0.3313,0.039 0.5,0.062 -1.4766,0.2057 -2.6637,1.2618 -3.0937,2.6563 -0.048,0.1542 -0.097,0.3069 -0.125,0.4687 0,0.022 -0.028,0.041 -0.031,0.062 -0.037,0.1832 -0.062,0.3681 -0.062,0.5625 0,0.1944 0.025,0.4105 0.062,0.5938 0,0.021 0.028,0.042 0.031,0.062 0.026,0.1503 0.082,0.2935 0.125,0.4375 0.4225,1.4083 1.607,2.4806 3.0937,2.6875 -0.1684,0.023 -0.3255,0.031 -0.5,0.031 -2.0976,0 -3.8124,-1.7149 -3.8124,-3.8125 0,-2.0976 1.7148,-3.8125 3.8124,-3.8125 z" color="#000" font-family="Sans" font-weight="400" overflow="visible"/><path style="line-height:normal;-inkscape-font-specification:Sans;text-indent:0;text-align:start;text-decoration-line:none;text-transform:none;block-progression:tb;marker:none" fill="#ff8e00" d="m 1734.9375,1133.9872 c 0.093,0.01 0.2051,0.01 0.2813,0.062 l 0.1874,0.125 c -0.564,0.2994 -1.162,0.5536 -1.7812,0.7188 -0.1816,0.042 -0.333,0.1934 -0.375,0.375 l -0.375,1.8125 -1.0312,0 0.375,-1.8125 c 0.042,-0.1816 0.1934,-0.3332 0.375,-0.375 0.732,-0.1953 1.4462,-0.4966 2.0937,-0.875 0.082,-0.045 0.1567,-0.037 0.25,-0.031 z" color="#000" font-family="Sans" font-weight="400" overflow="visible"/><path fill="none" stroke="#12141a" stroke-linecap="round" stroke-linejoin="round" d="m 1722.4374,1120.3935 1.25,1.8125 c -0.3988,0.6823 -0.6977,1.4371 -0.9063,2.2187 l -2.2187,0.4063 0,3.7812 2.2187,0.4063 c 0.2084,0.7815 0.5075,1.5365 0.9063,2.2187 l -1.25,1.8438 2.6563,2.6562 1.8124,-1.2812 c 0.6823,0.3987 1.4372,0.7289 2.2188,0.9375 l 0.4375,2.1875 3.75,0.031 0.4375,-2.2188 c 0.7816,-0.2076 1.5365,-0.5387 2.2188,-0.9375 l 1.8124,1.2813 2.6563,-2.6563 -1.25,-1.8437 c 0.3988,-0.6822 0.6978,-1.4059 0.9063,-2.1875 l 1.0645,-0.2099 0.5777,-0.1139 0.5765,-0.1137 0,-0.2579 m 0,-1.8341 0,-1.6893 -2.2187,-0.4062 c -0.2087,-0.7816 -0.5075,-1.5365 -0.9063,-2.2188 l 1.25,-1.8125 -2.6563,-2.6875 -1.8437,1.25 c -0.6724,-0.389 -1.4194,-0.6702 -2.1875,-0.875 l -0.4375,-2.2187 -3.75,0 0,2e-4 -0.4375,2.2188 c -0.7681,0.2051 -1.515,0.4859 -2.1875,0.875 l -1.8437,-1.25 m -1.2655,1.2804 -0.2936,0.2929 m 5.234,5.4979 c 0.1435,-0.1949 0.3078,-0.3736 0.4897,-0.5327 m 2.1791,-0.8198 c 1.8264,0 3.3125,1.4861 3.3125,3.3125 0,1.8264 -1.4861,3.3125 -3.3125,3.3125 -1.8264,0 -3.3125,-1.4861 -3.3125,-3.3125"/></g></g></svg>