<svg xmlns="http://www.w3.org/2000/svg" data-name="Layer 1" viewBox="0 0 64 64"><path fill="#e3fcfd" d="M18,34l-6,4V54H45a5,5,0,0,0,5-5V21l-2-2.5L50,16V2H17a5,5,0,0,0-5,5V19.34043L15,23l-3,3.3617V31.6Z"/><polyline fill="#e3fcfd" points="55 31 55 62 33 62 33 31"/><path fill="#42eaf5" d="M7.5,44.5h6a0,0,0,0,1,0,0v8a0,0,0,0,1,0,0H2.5a0,0,0,0,1,0,0v-3A5,5,0,0,1,7.5,44.5Z" transform="rotate(-90 8 48.5)"/><path fill="#42eaf5" d="M58 12H20V2H53a5 5 0 0 1 5 5zM37.89842 31.00767A5.00045 5.00045 0 1 1 33 25H55a5 5 0 1 1-4.89078 6.04428z"/><path fill="#007da1" d="M55,23H50.72A1.96758,1.96758,0,0,0,49,22H40a1.96758,1.96758,0,0,0-1.72,1H33a6.99531,6.99531,0,0,0-2,13.7V52H14V39.07l5.11-3.41a1.98481,1.98481,0,0,0,.88-1.87,2.01276,2.01276,0,0,0-1.25-1.65L14,30.25V27.12l2.49-2.79a2.00088,2.00088,0,0,0,.06-2.6L14,18.62V7a3.00879,3.00879,0,0,1,3-3h1v8a2.00591,2.00591,0,0,0,2,2H48v1.17l-1.41,1.42A1.994,1.994,0,0,0,49.41,19.41l2-2A1.966,1.966,0,0,0,52,16V14h6a2.00591,2.00591,0,0,0,2-2V7a7.0077,7.0077,0,0,0-7-7H17a7.0077,7.0077,0,0,0-7,7V19.34a2.03,2.03,0,0,0,.45,1.27l1.92,2.33-1.86,2.09A1.9735,1.9735,0,0,0,10,26.36V31.6a2.00976,2.00976,0,0,0,1.26,1.86l2.47.98-2.84,1.9A1.98058,1.98058,0,0,0,10,38v3H4a2.00587,2.00587,0,0,0-2,2v6a7.0077,7.0077,0,0,0,7,7H31v6a2.00591,2.00591,0,0,0,2,2H55a2.00591,2.00591,0,0,0,2-2V36.7A6.99531,6.99531,0,0,0,55,23ZM22,4H53a3.00879,3.00879,0,0,1,3,3v3H22ZM10,52H9a3.00883,3.00883,0,0,1-3-3V45h4ZM55,33a3.007,3.007,0,0,1-2.93-2.37,2.00345,2.00345,0,0,0-3.92.83A7.04179,7.04179,0,0,0,53,36.68V60H49V40a2,2,0,0,0-4,0V60H43V40a2,2,0,0,0-4,0V60H35V36.68a7.0233,7.0233,0,0,0,4.86-5.27,2.00039,2.00039,0,0,0-3.92-.8A3.0012,3.0012,0,1,1,33,27H55a3,3,0,0,1,0,6Z"/><circle cx="20" cy="46" r="2" fill="#42eaf5"/></svg>