<svg xmlns="http://www.w3.org/2000/svg" width="32" height="32" viewBox="0 0 32 32"><g transform="translate(0 -1020.362)"><circle cx="16" cy="1036.362" r="16" fill="#239fdb" fill-rule="evenodd"/><path style="isolation:auto;mix-blend-mode:normal" fill="#0b5ecd" d="M 21.132812 31.132812 A 16 16 0 0 0 21.796875 30.912109 A 16 16 0 0 0 23.257812 30.259766 A 16 16 0 0 0 24.644531 29.462891 A 16 16 0 0 0 25.945312 28.533203 A 16 16 0 0 0 27.146484 27.478516 A 16 16 0 0 0 28.238281 26.306641 A 16 16 0 0 0 29.205078 25.035156 A 16 16 0 0 0 30.041016 23.669922 A 16 16 0 0 0 30.736328 22.230469 A 16 16 0 0 0 31.136719 21.136719 L 22 12 L 13 12 L 13 13 L 12 12 L 10 12 L 10 14 L 11 15 L 10 15 L 10 17 L 11 18 L 10 18 L 10 20 L 21.132812 31.132812 z " color="#000" transform="translate(0 1020.362)"/><path style="isolation:auto;mix-blend-mode:normal" fill="#fff" d="M 2,4 2,6 4,6 4,4 2,4 Z M 5,4 5,6 14,6 14,4 5,4 Z M 2,7 2,9 4,9 4,7 2,7 Z m 3,0 0,2 9,0 0,-2 -9,0 z m -3,3 0,2 2,0 0,-2 -2,0 z m 3,0 0,2 9,0 0,-2 -9,0 z" color="#000" overflow="visible" transform="translate(8 1028.362)"/></g></svg>