<svg xmlns="http://www.w3.org/2000/svg" enable-background="new 0 0 55 55" viewBox="0 0 55 55"><linearGradient id="a" x1="-2.148" x2="46.096" y1="1.43" y2="64.123" gradientUnits="userSpaceOnUse"><stop offset="0" stop-color="#d810fb"/><stop offset="1" stop-color="#3953ed"/></linearGradient><path fill="url(#a)" d="M17.915,24.16c-1.84,0-3.34,1.5-3.34,3.34c0,1.83,1.5,3.33,3.34,3.33c1.83,0,3.33-1.5,3.33-3.33
		C21.245,25.66,19.745,24.16,17.915,24.16z M17.915,29.33c-1.01,0-1.84-0.82-1.84-1.83s0.83-1.84,1.84-1.84
		c1.01,0,1.83,0.83,1.83,1.84S18.925,29.33,17.915,29.33z"/><linearGradient id="b" x1="1.794" x2="50.038" y1="-1.603" y2="61.089" gradientUnits="userSpaceOnUse"><stop offset="0" stop-color="#d810fb"/><stop offset="1" stop-color="#3953ed"/></linearGradient><path fill="url(#b)" d="M50.335,22.26h-5.14V5.31c0-1.41-1.15-2.56-2.56-2.56c-18.041,0-21.105,0-36.89,0c-1.41,0-2.56,1.15-2.56,2.56
		v44.38c0,1.41,1.15,2.56,2.56,2.56c13.296,0,22.131,0,36.89,0c1.41,0,2.56-1.15,2.56-2.56V32.74h5.14c0.81,0,1.48-0.67,1.48-1.48
		v-7.53C51.815,22.92,51.145,22.26,50.335,22.26z M5.745,50.75c-0.59,0-1.06-0.48-1.06-1.06V5.31c0-0.59,0.47-1.06,1.06-1.06
		l17.75,4.46c0.58,0.15,0.99,0.67,0.99,1.28v35.02c0,0.6-0.41,1.12-1,1.27l-17.71,4.47H5.745z M43.695,49.69
		c0,0.58-0.48,1.06-1.06,1.06h-30.75l11.97-3.02c1.25-0.31,2.13-1.43,2.13-2.72V9.99c0-1.3-0.88-2.42-2.13-2.73l-11.93-3.01h30.71
		c0.58,0,1.06,0.47,1.06,1.06v16.95h-3.05v-1.85c0-0.939-1.054-1.459-1.8-0.9l-9.33,7.08c-0.28,0.21-0.44,0.54-0.44,0.9
		c0,0.35,0.16,0.68,0.44,0.89l9.33,7.1c0.745,0.559,1.8,0.035,1.8-0.89v-1.85h3.05V49.69z M39.145,33.83l-8.33-6.34l8.33-6.32
		C39.145,25.096,39.145,29.897,39.145,33.83z M40.645,31.24v-7.48c0.207,0,10.18,0,9.67,0l0.02,7.48
		C49.921,31.24,40.107,31.24,40.645,31.24z"/></svg>