<svg xmlns="http://www.w3.org/2000/svg" data-name="Layer 1" viewBox="0 0 512 512"><path fill="#00acea" d="M425.18,346.21h50.69c11.33,0,20.52,8.73,20.52,19.5v78.43c0,10.77-9.19,19.5-20.52,19.5H358.95c-11.33,0-20.52-8.73-20.52-19.5V365.71c0-10.77,9.19-19.5,20.52-19.5h66.23Zm-7.77,72.84c7.09,0,12.83-5.46,12.83-12.19s-5.74-12.19-12.83-12.19-12.83,5.46-12.83,12.19S410.33,419.05,417.41,419.05Z"/><ellipse cx="417.41" cy="406.86" fill="#00efd1" rx="12.83" ry="12.19"/><path fill="#00efd1" d="M425.18,265.31v80.9H367.7v-33.8c0-26.24,22.3-47.59,49.71-47.59A50.212,50.212,0,0,1,425.18,265.31Z"/><path fill="#00efd1" d="M425.18,124.47V265.31a50.212,50.212,0,0,0-7.77-.49c-27.41,0-49.71,21.35-49.71,47.59v33.8h-8.75c-11.33,0-20.52,8.73-20.52,19.5v21.2H15.61V124.47ZM323.69,280.96V208.21H117.1v72.75Z"/><path fill="#00acea" d="M425.18 48.36v76.11H15.61V48.36zM163.46 86.53c0-8.48-6.56-15.36-14.65-15.36s-14.64 6.88-14.64 15.36 6.55 15.37 14.64 15.37S163.46 95.02 163.46 86.53zm-47.6 0c0-8.48-6.56-15.36-14.65-15.36S86.57 78.05 86.57 86.53s6.55 15.37 14.64 15.37S115.86 95.02 115.86 86.53zm-47.6 0c0-8.48-6.56-15.36-14.65-15.36S38.97 78.05 38.97 86.53s6.56 15.37 14.64 15.37S68.26 95.02 68.26 86.53zM323.69 208.21v72.75H117.1V208.21zM290.9 244.58a16.615 16.615 0 1 0-16.61 16.62A16.614 16.614 0 0 0 290.9 244.58zm-53.89 0a16.615 16.615 0 1 0-16.62 16.62A16.617 16.617 0 0 0 237.01 244.58zm-53.89 0A16.615 16.615 0 1 0 166.5 261.2 16.617 16.617 0 0 0 183.12 244.58z"/><path fill="#fedb41" d="M274.29 227.97a16.615 16.615 0 1 1-16.62 16.61A16.614 16.614 0 0 1 274.29 227.97zM220.39 227.97a16.615 16.615 0 1 1-16.61 16.61A16.617 16.617 0 0 1 220.39 227.97zM166.5 227.97a16.615 16.615 0 1 1-16.61 16.61A16.617 16.617 0 0 1 166.5 227.97z"/><path fill="#00efd1" d="M148.81 71.17c8.09 0 14.65 6.88 14.65 15.36s-6.56 15.37-14.65 15.37-14.64-6.88-14.64-15.37S140.72 71.17 148.81 71.17zM101.21 71.17c8.09 0 14.65 6.88 14.65 15.36s-6.56 15.37-14.65 15.37S86.57 95.02 86.57 86.53 93.12 71.17 101.21 71.17zM53.61 71.17c8.09 0 14.65 6.88 14.65 15.36S61.7 101.9 53.61 101.9 38.97 95.02 38.97 86.53 45.53 71.17 53.61 71.17z"/><path fill="#083863" d="M101.21 63.17c-12.483 0-22.64 10.479-22.64 23.36s10.157 23.37 22.64 23.37 22.65-10.484 22.65-23.37S113.7 63.17 101.21 63.17zm0 30.73c-3.661 0-6.64-3.306-6.64-7.37s2.979-7.36 6.64-7.36 6.65 3.3 6.65 7.36S104.877 93.9 101.21 93.9zM148.81 63.17c-12.484 0-22.64 10.479-22.64 23.36s10.156 23.37 22.64 23.37 22.65-10.484 22.65-23.37S161.3 63.17 148.81 63.17zm0 30.73c-3.662 0-6.64-3.306-6.64-7.37s2.978-7.36 6.64-7.36 6.65 3.3 6.65 7.36S152.477 93.9 148.81 93.9zM53.61 63.17c-12.484 0-22.64 10.479-22.64 23.36S41.126 109.9 53.61 109.9 76.26 99.416 76.26 86.53 66.1 63.17 53.61 63.17zm0 30.73c-3.662 0-6.64-3.306-6.64-7.37s2.978-7.36 6.64-7.36 6.65 3.3 6.65 7.36S57.276 93.9 53.61 93.9zM324 200H117a8 8 0 0 0-8 8v73a8 8 0 0 0 8 8H324a8 8 0 0 0 8-8V208A8 8 0 0 0 324 200zm-8 73H125V216H316z"/><path fill="#083863" d="M220.39 269.2a24.615 24.615 0 1 0-24.61-24.62A24.648 24.648 0 0 0 220.39 269.2zm0-33.23a8.615 8.615 0 1 1-8.61 8.61A8.625 8.625 0 0 1 220.39 235.97zM166.5 269.2a24.615 24.615 0 1 0-24.61-24.62A24.648 24.648 0 0 0 166.5 269.2zm0-33.23a8.615 8.615 0 1 1-8.61 8.61A8.625 8.625 0 0 1 166.5 235.97zM274.29 269.2a24.615 24.615 0 1 0-24.62-24.62A24.643 24.643 0 0 0 274.29 269.2zm0-33.23a8.615 8.615 0 1 1-8.62 8.61A8.62 8.62 0 0 1 274.29 235.97z"/><path fill="#083863" d="M475.87,338H475V312.41a54.393,54.393,0,0,0-17.412-39.871A58.618,58.618,0,0,0,433,258.807V48.36c0-4.419-3.4-8.36-7.82-8.36H15.61C11.192,40,8,43.941,8,48.36V386.91c0,4.419,3.192,8.09,7.61,8.09H330v49.14C330,459.3,343.224,472,358.95,472H475.87A28.017,28.017,0,0,0,504,444.14V365.71A27.89,27.89,0,0,0,475.87,338ZM433,275.613a41.8,41.8,0,0,1,13.613,8.568A38.547,38.547,0,0,1,459,312.41V338H433ZM24,56H417v60H24ZM330,365.71V379H24V132H417V256.824c-32,.122-57,25.009-57,55.586V338h-1.05C343.224,338,330,350.546,330,365.71Zm87-92.885V338H376V312.41C376,290.653,394,272.944,417,272.825ZM488,444.14A12,12,0,0,1,475.87,456H358.95c-6.9,0-12.95-5.519-12.95-11.86V365.71c0-6.341,6.046-11.71,12.95-11.71h65.734c.165,0,.328.025.5.025s.327-.025.49-.025h50.2A11.877,11.877,0,0,1,488,365.71Z"/><path fill="#083863" d="M417.41,386.67c-11.485,0-21.035,9.057-21.035,20.19,0,8.386,5.625,15.59,12.625,18.636V436.14a8,8,0,0,0,16,0V425.5a19.731,19.731,0,0,0,13.035-18.636A20.362,20.362,0,0,0,417.41,386.67Zm0,24.38c-2.663,0-4.83-1.88-4.83-4.19s2.167-4.19,4.83-4.19,4.83,1.879,4.83,4.19S420.073,411.05,417.41,411.05Z"/></svg>