<svg xmlns="http://www.w3.org/2000/svg" data-name="Layer 1" viewBox="0 0 32 32"><path fill="#dfe1f0" d="M23.683,22.669V29.5a2,2,0,0,1-2,2h-19a2,2,0,0,1-2-2V2.5a2,2,0,0,1,2-2h14l7,7V22.669Z"/><path fill="#fff" d="M16.683 3.5h-12a1 1 0 0 0-1 1v2a1 1 0 0 0 1 1h14zM13.683 28.925a2.761 2.761 0 0 1-1.591-.471 1.926 1.926 0 0 0-2.153 0 2.761 2.761 0 0 1-1.591.471 2.752 2.752 0 0 1-1.589-.472 1.778 1.778 0 0 0-1.075-.329.5.5 0 1 1 0-1 2.752 2.752 0 0 1 1.589.472 1.778 1.778 0 0 0 1.075.329A1.78 1.78 0 0 0 9.424 27.6a2.923 2.923 0 0 1 3.183 0 1.78 1.78 0 0 0 1.077.329.5.5 0 0 1 0 1z"/><path fill="#fdd331" d="M31.32,14.42a1.526,1.526,0,0,1-.44,1.06L19.92,26.44,17.8,24.31,28.76,13.35a1.5,1.5,0,0,1,2.56,1.07Z"/><polygon fill="#afaeb3" points="17.089 27.849 16.382 27.142 17.796 24.314 19.917 26.435 17.089 27.849"/><path fill="#afaeb3" d="M15.828,28.981a.5.5,0,0,1-.387-.838l.923-1.005a.5.5,0,1,1,.737.676l-.923,1.005A.5.5,0,0,1,15.828,28.981Z"/><rect width="2" height="2" x="3.683" y="10.5" fill="#fff" rx="1" ry="1"/><rect width="2" height="2" x="3.683" y="15.5" fill="#fff" rx="1" ry="1"/><rect width="2" height="2" x="3.683" y="20.5" fill="#fff" rx="1" ry="1"/><path fill="#fff" d="M20.683 13h-12a.5.5 0 1 1 0-1h12a.5.5 0 0 1 0 1zM20.683 11h-12a.5.5 0 1 1 0-1h12a.5.5 0 0 1 0 1zM20.683 16h-12a.5.5 0 1 1 0-1h12a.5.5 0 0 1 0 1zM20.683 18h-12a.5.5 0 1 1 0-1h12a.5.5 0 0 1 0 1zM16.683 21h-8a.5.5 0 1 1 0-1h8a.5.5 0 0 1 0 1zM16.683 23h-8a.5.5 0 1 1 0-1h8a.5.5 0 0 1 0 1z"/><path fill="#afaeb3" d="M23.683 7.5h-5a2 2 0 0 1-2-2V.5zM31.32 14.42a1.526 1.526 0 0 1-.44 1.06l-1 1-2.13-2.12 1.01-1.01a1.5 1.5 0 0 1 2.56 1.07z"/></svg>