<svg xmlns="http://www.w3.org/2000/svg" width="24" height="24" viewBox="0 0 24 24"><g transform="translate(0 -1028.362)"><circle cx="37.045" cy="28.409" r="12.5" fill="#ef4c45" fill-rule="evenodd" transform="matrix(.96 0 0 .96 -23.563 1013.09)"/><path style="line-height:normal;text-indent:0;text-align:start;text-decoration-line:none;text-transform:none;block-progression:tb" fill="#df2209" d="M 14.521484 23.716797 A 12 12 0 0 0 15.210938 23.5625 A 12 12 0 0 0 16.347656 23.183594 A 12 12 0 0 0 17.443359 22.695312 A 12 12 0 0 0 18.484375 22.097656 A 12 12 0 0 0 19.458984 21.400391 A 12 12 0 0 0 20.361328 20.607422 A 12 12 0 0 0 21.177734 19.730469 A 12 12 0 0 0 21.904297 18.775391 A 12 12 0 0 0 22.53125 17.753906 A 12 12 0 0 0 23.052734 16.673828 A 12 12 0 0 0 23.464844 15.546875 A 12 12 0 0 0 23.724609 14.529297 L 16.597656 7.4023438 C 15.422129 6.2268438 13.797877 5.5 12 5.5 C 8.4042272 5.5 5.5 8.4043004 5.5 12 C 5.5 13.7979 6.2268193 15.422156 7.4023438 16.597656 L 14.521484 23.716797 z " color="#000" font-family="sans-serif" font-weight="400" transform="translate(0 1028.362)"/><path style="line-height:normal;text-indent:0;text-align:start;text-decoration-line:none;text-transform:none;block-progression:tb" fill="#fff" d="M 8.5,2 C 12.095773,2 15,4.9043 15,8.5 15,12.0958 12.095773,15 8.5,15 4.9042268,15 2,12.0958 2,8.5 2,4.9043 4.9042268,2 8.5,2 Z M 4.9492188,8 C 4.6874194,8.0132945 4.4613151,8.2635912 4.4746096,8.5253906 4.4879041,8.78719 4.7382006,9.0132945 5,9 l 7,0 C 12.264156,9.00374 12.507121,8.7641827 12.507121,8.5 12.507121,8.2358173 12.264156,7.9962642 12,8 L 5,8 C 4.983087,7.9991401 4.966131,7.9991401 4.949219,8 Z" color="#000" font-family="sans-serif" font-weight="400" overflow="visible" transform="translate(3.5 1031.862)"/></g></svg>